Coordinates
version=1
nRows=9
nColumns=63
inDegrees=yes

Units are S.I. units (second, meters, Newtons, ...)
If the header above contains a line with 'inDegrees', this indicates whether rotational values are in degrees (yes) or radians (no).

endheader
time	pelvis_tilt	pelvis_list	pelvis_rotation	pelvis_tx	pelvis_ty	pelvis_tz	hip_flexion_r	hip_adduction_r	hip_rotation_r	knee_angle_r	knee_angle_r_beta	ankle_angle_r	subtalar_angle_r	mtp_angle_r	hip_flexion_l	hip_adduction_l	hip_rotation_l	knee_angle_l	knee_angle_l_beta	ankle_angle_l	subtalar_angle_l	mtp_angle_l	L5_S1_Flex_Ext	L5_S1_Lat_Bending	L5_S1_axial_rotation	L4_L5_Flex_Ext	L4_L5_Lat_Bending	L4_L5_axial_rotation	L3_L4_Flex_Ext	L3_L4_Lat_Bending	L3_L4_axial_rotation	L2_L3_Flex_Ext	L2_L3_Lat_Bending	L2_L3_axial_rotation	L1_L2_Flex_Ext	L1_L2_Lat_Bending	L1_L2_axial_rotation	L1_T12_Flex_Ext	L1_T12_Lat_Bending	L1_T12_axial_rotation	Abs_r3	Abs_r2	Abs_r1	Abs_t1	Abs_t2	neck_flexion	neck_bending	neck_rotation	arm_flex_r	arm_add_r	arm_rot_r	elbow_flex_r	pro_sup_r	wrist_flex_r	wrist_dev_r	arm_flex_l	arm_add_l	arm_rot_l	elbow_flex_l	pro_sup_l	wrist_flex_l	wrist_dev_l
5.400000	-1.121658	-10.786645	84.477014	0.197230	0.871883	0.631648	8.284708	-1.478321	-2.067412	10.536907	0.183904	30.564790	13.233414	0.000000	10.286872	0.671794	5.959823	14.517207	0.253373	33.038494	-4.881432	0.000000	0.207470	-0.062257	-1.461968	0.385293	-0.082801	-1.553341	0.340853	-0.151371	-1.553341	0.237118	-0.151371	-1.279222	0.192657	-0.126954	-1.187849	0.118549	-0.096435	-1.096476	1.481941	-0.704258	-8.131025	0.000000	0.000000	27.948469	0.640366	-25.432974	-233.823768	-117.161917	-267.764912	15.817693	4.983678	-24.754405	27.533911	91.732152	-106.790853	187.055610	7.504702	21.142619	14.905489	-8.456941
5.416667	-1.304433	-10.624385	84.582733	0.197718	0.873257	0.630426	7.856247	-1.678989	-1.861735	10.208050	0.178164	30.292102	13.157592	0.000000	9.912586	0.877582	6.372839	14.168225	0.247282	32.611683	-5.156287	0.000000	0.220418	-0.100895	-1.453542	0.409338	-0.134191	-1.544389	0.362125	-0.245317	-1.544389	0.251916	-0.245317	-1.271849	0.204680	-0.205746	-1.181003	0.125947	-0.156287	-1.090157	1.574424	-1.141348	-8.084166	0.000000	0.000000	27.960770	0.577664	-26.622137	-234.630657	-116.136684	-275.106276	15.916039	1.102099	-23.440656	28.827299	84.677294	-106.768670	182.651270	7.071266	21.520354	15.424581	-6.174325
5.433333	-1.499846	-10.530667	84.675822	0.198253	0.874288	0.629170	7.536031	-1.884249	-1.740524	9.959543	0.173827	30.122011	13.127021	0.000000	9.634956	1.085152	6.718626	13.878781	0.242230	32.262549	-5.361199	0.000000	0.240900	-0.141866	-1.414930	0.447375	-0.188682	-1.503363	0.395774	-0.344934	-1.503363	0.275324	-0.344934	-1.238064	0.223700	-0.289294	-1.149631	0.137650	-0.219751	-1.061198	1.720723	-1.604820	-7.869417	0.000000	0.000000	27.984653	0.382295	-28.173241	-235.158475	-115.406429	-283.993882	16.800754	-1.188606	-21.424106	29.270544	77.652622	-106.749035	176.491454	6.432370	19.391753	13.509369	-6.341283
5.450000	-1.706642	-10.488642	84.758389	0.198877	0.874911	0.627965	7.316892	-2.087573	-1.682511	9.803143	0.171097	30.058494	13.095631	0.000000	9.454119	1.278875	6.888950	13.682121	0.238798	32.045833	-5.352363	0.000000	0.266938	-0.184837	-1.365301	0.495730	-0.245833	-1.450632	0.438552	-0.449413	-1.450632	0.305083	-0.449413	-1.194638	0.247878	-0.376920	-1.109307	0.152528	-0.286313	-1.023975	1.906709	-2.090913	-7.593392	0.000000	0.000000	28.019986	0.136856	-29.876385	-235.147569	-114.906918	-293.732070	18.303459	-1.551120	-18.296393	28.674710	70.819475	-106.810581	168.153652	5.643371	17.442455	9.513518	-7.107237
5.466667	-1.910753	-10.488855	84.840201	0.199531	0.875098	0.626879	7.197207	-2.280835	-1.700620	9.753490	0.170231	30.095866	13.058089	0.000000	9.368332	1.451897	6.899296	13.592001	0.237225	31.974290	-5.152978	0.000000	0.297353	-0.226541	-1.317788	0.552215	-0.301299	-1.400150	0.488522	-0.550811	-1.400150	0.339845	-0.550811	-1.153064	0.276122	-0.461962	-1.070703	0.169908	-0.350911	-0.988341	2.123965	-2.562673	-7.329140	0.000000	0.000000	28.065786	-0.105844	-31.524898	-234.266236	-114.627424	-304.141866	20.386351	1.294665	-13.401555	27.034974	64.314556	-106.953911	158.717100	4.662580	15.205279	3.851915	-8.010238
5.483333	-2.085303	-10.514593	84.920493	0.200149	0.874853	0.625982	7.164205	-2.440636	-1.775309	9.814463	0.171295	30.211656	12.979860	0.000000	9.371509	1.582564	6.758913	13.631007	0.237906	32.071591	-4.788802	0.000000	0.328232	-0.262700	-1.271436	0.609560	-0.349391	-1.350901	0.539252	-0.638729	-1.350901	0.375136	-0.638729	-1.112507	0.304796	-0.535698	-1.033042	0.187552	-0.406923	-0.953577	2.344528	-2.971717	-7.071347	0.000000	0.000000	28.119518	-0.359918	-33.026518	-232.693481	-114.766661	-314.469019	23.201926	7.613628	-8.050875	24.060035	58.520074	-107.025515	148.597782	3.526651	13.409409	-3.274002	-8.707614
5.500000	-2.217235	-10.563436	84.984478	0.200651	0.874206	0.625294	7.211818	-2.561969	-1.918522	9.970783	0.174023	30.380016	12.906150	0.000000	9.454492	1.666426	6.496571	13.786420	0.240618	32.320968	-4.328077	0.000000	0.357977	-0.290562	-1.214178	0.664799	-0.386448	-1.290064	0.588121	-0.706473	-1.290064	0.409132	-0.706473	-1.062406	0.332417	-0.592515	-0.986520	0.204548	-0.450081	-0.910634	2.556994	-3.286900	-6.752894	0.000000	0.000000	28.177597	-0.632476	-34.311343	-231.231954	-115.276122	-322.559367	26.326392	15.068245	-3.704868	19.241230	54.467662	-106.872371	139.065520	2.257653	12.068267	-11.687883	-9.531557
5.516667	-2.347663	-10.629080	85.074685	0.201146	0.873203	0.624837	7.333100	-2.675082	-2.069824	10.220754	0.178386	30.594717	12.699577	0.000000	9.616932	1.737413	6.113220	14.053671	0.245283	32.706568	-3.724944	0.000000	0.383895	-0.319352	-1.168162	0.712932	-0.424738	-1.241172	0.630702	-0.776473	-1.241172	0.438754	-0.776473	-1.022142	0.356485	-0.651223	-0.949132	0.219358	-0.494677	-0.876122	2.742126	-3.612576	-6.496968	0.000000	0.000000	28.234001	-0.824251	-35.489000	-229.679324	-115.803235	-324.815832	29.091985	21.700288	-0.030486	13.150998	51.579252	-106.649724	128.868595	1.404522	12.146262	-21.022176	-10.709065
5.533333	-2.419467	-10.700989	85.161824	0.201479	0.871904	0.624541	7.493674	-2.736641	-2.257336	10.517178	0.183559	30.837054	12.473522	0.000000	9.824922	1.742786	5.598853	14.404483	0.251406	33.245837	-2.980367	0.000000	0.404479	-0.336408	-1.125688	0.751159	-0.447423	-1.196044	0.664519	-0.817943	-1.196044	0.462280	-0.817943	-0.984977	0.375600	-0.686004	-0.914622	0.231120	-0.521096	-0.844266	2.889156	-3.805518	-6.260741	0.000000	0.000000	28.280868	-1.026057	-36.296362	-228.737822	-116.704605	-328.340616	32.390499	33.493706	2.515204	7.014022	51.031190	-106.311127	120.727575	0.779697	12.774068	-30.297258	-11.980057
